# xmcd
#
# Track frame offsets:
#	180
#	16266
#	29750
#	40339
#	53942
#	68981
#	86336
#	101641
#	114226
#	128128
#	142569
#	157141
#	180946
#	197413
#	215150
#	233497
#	250192
#
# Disc length: 3530 seconds
#
# Revision: 1
# Processed by: cddbd v1.5.2PL0 Copyright (c) Steve Scherf et al.
# Submitted via: audiograbber 1.83.01
#
DISCID=df0dc811
DTITLE=Various Artist - Glory Train Records . Winter 2000
DYEAR=2000
DGENRE=Gospel
TTITLE0=Robert Shields - Children Of The Street
TTITLE1=Patty Walker - I Got Spirit
TTITLE2=Rod Haines - The Sweetest Words He Ever Said
TTITLE3=Kries Chapa - Life's Highway
TTITLE4=Derwin Hinson - He Sent An Angel To Walk With Me
TTITLE5=The Hamiltons - He's A Soul Man
TTITLE6=Clint Miller - The Book Of Life
TTITLE7=Loretta Solon - I Took A Walk
TTITLE8=Rob Mashburn - Leaving A Light
TTITLE9=The Canaanlanders - Down At The Altar
TTITLE10=Jose Daniel - Alex And Me
TTITLE11=The Young Family - My Beloved
TTITLE12=Canadian Country Chorus - Singing Songs Of Love
TTITLE13=Corinda Carford - The Last Goodbye
TTITLE14=Michael Terry and Jeff Edson - Sometines This World
TTITLE15=Clint Miller - Angels On High
TTITLE16=Robert Shields - Merry Christmas To The Savior
EXTD=
EXTT0=
EXTT1=
EXTT2=
EXTT3=
EXTT4=
EXTT5=
EXTT6=
EXTT7=
EXTT8=
EXTT9=
EXTT10=
EXTT11=
EXTT12=
EXTT13=
EXTT14=
EXTT15=
EXTT16=
PLAYORDER=
